<svg width="512" height="512" viewBox="0 0 512 512" fill="none" xmlns="http://www.w3.org/2000/svg">
<circle cx="256" cy="256" r="246" fill="white" stroke="black" stroke-width="20"/>
<path d="M155.705 190.091V321H126.045L78.7443 252.222H77.9773V321H42.4375V190.091H72.608L119.142 258.614H120.165V190.091H155.705ZM299.334 255.545C299.334 270.119 296.5 282.413 290.832 292.428C285.165 302.399 277.516 309.963 267.885 315.119C258.254 320.233 247.516 322.79 235.669 322.79C223.737 322.79 212.956 320.212 203.325 315.055C193.737 309.857 186.109 302.271 180.442 292.3C174.817 282.286 172.004 270.034 172.004 255.545C172.004 240.972 174.817 228.699 180.442 218.727C186.109 208.713 193.737 201.149 203.325 196.036C212.956 190.879 223.737 188.301 235.669 188.301C247.516 188.301 258.254 190.879 267.885 196.036C277.516 201.149 285.165 208.713 290.832 218.727C296.5 228.699 299.334 240.972 299.334 255.545ZM262.771 255.545C262.771 247.705 261.727 241.099 259.639 235.73C257.594 230.318 254.547 226.227 250.499 223.457C246.493 220.645 241.55 219.239 235.669 219.239C229.788 219.239 224.824 220.645 220.776 223.457C216.77 226.227 213.723 230.318 211.635 235.73C209.589 241.099 208.567 247.705 208.567 255.545C208.567 263.386 209.589 270.013 211.635 275.425C213.723 280.794 216.77 284.885 220.776 287.697C224.824 290.467 229.788 291.852 235.669 291.852C241.55 291.852 246.493 290.467 250.499 287.697C254.547 284.885 257.594 280.794 259.639 275.425C261.727 270.013 262.771 263.386 262.771 255.545ZM306.045 218.727V190.091H419.824V218.727H380.449V321H345.42V218.727H306.045ZM468.739 190.091V321H433.199V190.091H468.739Z" fill="black"/>
</svg>
